<svg xmlns="http://www.w3.org/2000/svg" viewBox="0 0 512 512" role="img" aria-labelledby="title desc">
  <title id="title">PDFSwift icon</title>
  <desc id="desc">A PDF document with a lightning bolt.</desc>
  <rect width="512" height="512" rx="112" fill="#eff6ff"/>
  <path d="M164 72h142l82 82v286H164z" fill="#ffffff" stroke="#1d4ed8" stroke-width="22" stroke-linejoin="round"/>
  <path d="M306 72v92h82" fill="#dbeafe" stroke="#1d4ed8" stroke-width="22" stroke-linejoin="round"/>
  <rect x="118" y="278" width="190" height="82" rx="22" fill="#ef4444"/>
  <path d="M151 334v-37h25c8 0 14 2 18 6s6 9 6 15-2 11-6 15-10 6-18 6h-10v-5zm15-8h9c3 0 6-1 7-2 2-1 3-4 3-6s-1-4-3-6c-1-1-4-2-7-2h-9zm44 8v-37h20c7 0 13 2 18 7 4 4 7 9 7 15v1c0 6-3 12-7 15-5 4-11 6-18 6zm15-12h5c3 0 6-1 8-3s3-5 3-8c0-4-1-6-3-8s-5-3-8-3h-5zm43 12v-37h38v12h-23v6h21v11h-21v14z" fill="#ffffff"/>
  <path d="M347 228 260 352h64l-24 100 96-136h-65z" fill="#facc15" stroke="#111827" stroke-width="18" stroke-linejoin="round"/>
</svg>
